<svg width="74" height="60" viewBox="0 0 74 60" fill="none" xmlns="http://www.w3.org/2000/svg">
<g filter="url(#filter0_d)">
<path d="M36.9449 31.9278C36.9449 31.9278 31.0894 28.3886 27.4005 21.9991C23.7116 15.6095 23.5567 8.79268 23.5567 8.79268C23.5567 8.79268 29.3826 12.3353 33.0715 18.7248C36.7603 25.1144 36.9449 31.9278 36.9449 31.9278ZM36.9449 31.9278C36.9449 31.9278 33.1369 24.9896 33.1369 16.4544C33.1369 14.2332 33.3941 12.1214 33.7747 10.2125C34.8564 4.78646 36.9349 1 36.9349 1C36.9349 1 39.1733 4.40234 40.2051 10.2125C40.5094 11.9263 40.7328 14.5103 40.7328 16.4544C40.7328 24.9896 36.9449 31.9278 36.9449 31.9278ZM36.9449 31.9278C36.9449 31.9278 42.872 28.3886 46.5609 21.9991C50.2497 15.6095 50.4047 8.79268 50.4047 8.79268C50.4047 8.79268 44.5788 12.3353 40.8899 18.7248C37.201 25.1144 36.9449 31.9278 36.9449 31.9278ZM36.9449 31.9278C36.9449 31.9278 33.0232 31.8432 29.3496 29.7222C25.6761 27.6012 23.6419 24.2471 23.6419 24.2471C23.6419 24.2471 27.5637 24.3317 31.2372 26.4527C34.9107 28.5737 36.9449 31.9278 36.9449 31.9278ZM36.9449 31.9278C36.9449 31.9278 40.9006 31.8432 44.5741 29.7222C48.2477 27.6012 50.2819 24.2471 50.2819 24.2471C50.2819 24.2471 46.3601 24.3317 42.6866 26.4527C39.0131 28.5737 36.9449 31.9278 36.9449 31.9278ZM9.92975 50.8301C9.47866 50.9434 9.04691 51 8.63448 51C8.22206 51 7.88374 50.7678 7.61953 50.3035C7.35532 49.8392 7.22322 49.222 7.22322 48.452V48.2821H6.93323C6.2566 48.2821 5.76363 48.016 5.45431 47.4837C5.15144 46.9401 5 46.0738 5 44.8847V39.4489C5 38.2598 5.15144 37.3992 5.45431 36.8669C5.76363 36.3233 6.2566 36.0515 6.93323 36.0515H9.34978C10.0264 36.0515 10.5162 36.3233 10.819 36.8669C11.1284 37.3992 11.283 38.2598 11.283 39.4489V44.8847C11.283 46.0738 11.1284 46.9401 10.819 47.4837C10.5162 48.016 10.0264 48.2821 9.34978 48.2821H8.86647V48.452C8.86647 48.6218 8.89869 48.7634 8.96313 48.8766C9.02757 48.9899 9.10812 49.0465 9.20479 49.0465H9.92975V50.8301ZM9.5431 39.4489C9.5431 38.7694 9.34978 38.4297 8.96313 38.4297H7.31988C6.93323 38.4297 6.73991 38.7694 6.73991 39.4489V44.8847C6.73991 45.5642 6.93323 45.9039 7.31988 45.9039H8.96313C9.34978 45.9039 9.5431 45.5642 9.5431 44.8847V39.4489ZM16.6039 36.2214H18.3439V44.8847C18.3439 46.0738 18.1892 46.9401 17.8799 47.4837C17.577 48.016 17.0872 48.2821 16.4106 48.2821H14.1874C13.5108 48.2821 13.0178 48.016 12.7085 47.4837C12.4056 46.9401 12.2542 46.0738 12.2542 44.8847V36.2214H13.9941V44.8847C13.9941 45.5642 14.1874 45.9039 14.574 45.9039H16.024C16.4106 45.9039 16.6039 45.5642 16.6039 44.8847V36.2214ZM22.6936 48.1122H19.2138V45.7341H20.0838V38.5996H19.2138V36.2214H22.6936V38.5996H21.8237V45.7341H22.6936V48.1122ZM26.8493 48.1122H25.1094V38.5996H23.0795V36.2214H28.8792V38.5996H26.8493V48.1122ZM34.9217 48.1122H29.557V36.2214H34.9217V38.5996H31.2969V40.8928H34.1484V43.271H31.2969V45.7341H34.9217V48.1122ZM38.5907 36.2214H42.6505C43.3271 36.2214 43.8169 36.4932 44.1198 37.0368C44.4291 37.569 44.5837 38.4297 44.5837 39.6188V41.3175C44.5837 42.5066 44.4291 43.3729 44.1198 43.9165C43.8169 44.4487 43.3271 44.7149 42.6505 44.7149H40.3306V48.1122H38.5907V36.2214ZM42.8438 39.6188C42.8438 38.9393 42.6505 38.5996 42.2639 38.5996H40.3306V42.3367H42.2639C42.6505 42.3367 42.8438 41.997 42.8438 41.3175V39.6188ZM47.1932 45.7341H50.7214V48.1122H45.4533V36.2214H47.1932V45.7341ZM52.6086 48.1122H50.7237L53.2852 36.2214H55.2184L57.78 48.1122H55.8951L55.4601 45.9889H53.0435L52.6086 48.1122ZM53.4785 43.7806H55.0251L54.2518 39.7887L53.4785 43.7806ZM63.2938 47.9424C61.8568 48.1689 60.6646 48.2821 59.7173 48.2821C59.0858 48.2821 58.6218 48.0216 58.3254 47.5007C58.029 46.9798 57.8808 46.1644 57.8808 45.0546V39.6188C57.8808 38.4297 58.0322 37.569 58.3351 37.0368C58.6444 36.4932 59.1374 36.2214 59.814 36.2214H63.2938V38.5996H60.2007C59.814 38.5996 59.6207 38.9393 59.6207 39.6188V45.0546C59.6207 45.3151 59.6626 45.5246 59.7463 45.6831C59.8366 45.8303 59.9493 45.9039 60.0847 45.9039C60.22 45.9039 60.3682 45.9039 60.5293 45.9039C60.6904 45.8926 60.858 45.8813 61.0319 45.87C61.2059 45.8586 61.3799 45.8473 61.5539 45.836C61.7344 45.8247 61.9631 45.802 62.2402 45.768C62.5238 45.7341 62.875 45.6944 63.2938 45.6491V47.9424ZM69.433 48.1122H64.0683V36.2214H69.433V38.5996H65.8082V40.8928H68.6597V43.271H65.8082V45.7341H69.433V48.1122Z" stroke="#22C1C3" stroke-width="0.4"/>
</g>
<defs>
<filter id="filter0_d" x="0.799988" y="0.612579" width="72.833" height="58.5874" filterUnits="userSpaceOnUse" color-interpolation-filters="sRGB">
<feFlood flood-opacity="0" result="BackgroundImageFix"/>
<feColorMatrix in="SourceAlpha" type="matrix" values="0 0 0 0 0 0 0 0 0 0 0 0 0 0 0 0 0 0 127 0"/>
<feOffset dy="4"/>
<feGaussianBlur stdDeviation="2"/>
<feColorMatrix type="matrix" values="0 0 0 0 0 0 0 0 0 0 0 0 0 0 0 0 0 0 0.25 0"/>
<feBlend mode="normal" in2="BackgroundImageFix" result="effect1_dropShadow"/>
<feBlend mode="normal" in="SourceGraphic" in2="effect1_dropShadow" result="shape"/>
</filter>
</defs>
</svg>
