<svg width="266" height="306" viewBox="0 0 266 306" fill="none" xmlns="http://www.w3.org/2000/svg">
<path d="M132.648 305C132.648 305 75.07 270.212 38.7968 207.407C2.52361 144.602 1 77.5968 1 77.5968C1 77.5968 58.2869 112.418 94.5601 175.223C130.833 238.028 132.648 305 132.648 305ZM132.648 305C132.648 305 95.2032 236.802 95.2032 152.906C95.2032 131.073 97.7325 110.316 101.475 91.5532C112.112 38.2184 132.549 1 132.549 1C132.549 1 154.561 34.4427 164.706 91.5532C167.698 108.398 169.895 133.798 169.895 152.906C169.895 236.802 132.648 305 132.648 305ZM132.648 305C132.648 305 190.93 270.212 227.203 207.407C263.476 144.602 265 77.5968 265 77.5968C265 77.5968 207.713 112.418 171.44 175.223C135.167 238.028 132.648 305 132.648 305ZM132.648 305C132.648 305 94.085 304.168 57.9627 283.32C21.8404 262.472 1.83789 229.503 1.83789 229.503C1.83789 229.503 40.4011 230.335 76.5234 251.183C112.646 272.031 132.648 305 132.648 305ZM132.648 305C132.648 305 171.545 304.168 207.667 283.32C243.79 262.472 263.792 229.503 263.792 229.503C263.792 229.503 225.229 230.335 189.107 251.183C152.984 272.031 132.648 305 132.648 305Z" stroke="#FDBB2D" stroke-opacity="0.3"/>
</svg>
