<svg width="31" height="23" viewBox="0 0 31 23" fill="none" xmlns="http://www.w3.org/2000/svg">
<path d="M20.631 0C17.0261 0 14.0947 2.71936 14.0947 6.06342C14.0947 6.26437 14.1488 6.46095 14.17 6.65753C9.7128 6.26218 5.77123 4.27017 3.09407 1.22317C2.96928 1.07682 2.7762 0.998193 2.57371 1.0113C2.37357 1.0244 2.19462 1.13143 2.09573 1.29306C1.53298 2.19078 1.2104 3.22392 1.2104 4.33351C1.2104 5.67681 1.72841 6.90653 2.52897 7.91565C2.37357 7.8523 2.20404 7.81736 2.05805 7.74091C1.87204 7.64917 1.64836 7.65354 1.46705 7.75401C1.28575 7.85449 1.17509 8.03578 1.17273 8.23017V8.30007C1.17273 10.3598 2.32177 12.1487 4.01707 13.2452C3.99823 13.243 3.97939 13.2495 3.96056 13.2452C3.75335 13.2124 3.5438 13.2801 3.40488 13.4265C3.26596 13.5728 3.22122 13.7759 3.28244 13.9616C3.95585 15.9034 5.67469 17.3865 7.80324 17.9282C6.10794 18.863 4.14186 19.4134 2.02038 19.4134C1.56124 19.4134 1.12093 19.3916 0.682978 19.3435C0.400428 19.3086 0.12965 19.4615 0.0354673 19.7105C-0.0610706 19.9595 0.0448857 20.2369 0.287408 20.3745C3.00695 21.993 6.23508 22.9431 9.70574 22.9431C15.3308 22.9431 19.7433 20.7633 22.703 17.6486C25.6627 14.5339 27.205 10.4887 27.205 6.70995C27.205 6.5505 27.1909 6.39542 27.1862 6.23816C28.2905 5.45402 29.277 4.53446 30.0493 3.45982C30.2024 3.25232 30.1859 2.97492 30.0093 2.78271C29.8351 2.5905 29.5407 2.53152 29.2959 2.63855C28.9851 2.76742 28.6225 2.78052 28.2975 2.88318C28.7261 2.35241 29.0934 1.78015 29.3147 1.1358C29.3901 0.915192 29.3076 0.672743 29.1122 0.528584C28.9168 0.386608 28.6437 0.369135 28.4294 0.489267C27.4004 1.05498 26.2608 1.45251 25.0576 1.69496C23.8897 0.681479 22.3522 0 20.631 0ZM20.631 1.11833C22.1685 1.11833 23.5578 1.72773 24.5302 2.69097C24.6762 2.83076 24.8904 2.88974 25.0953 2.84823C25.8817 2.70408 26.6281 2.49221 27.3557 2.21918C26.9366 2.74339 26.4186 3.19116 25.8111 3.52971C25.5356 3.65421 25.4061 3.94909 25.5073 4.21775C25.6062 4.48422 25.9076 4.6393 26.2067 4.57814C26.8094 4.51043 27.3463 4.28327 27.9208 4.1413C27.4051 4.65896 26.84 5.12639 26.2255 5.5392C26.0583 5.65278 25.9665 5.83626 25.9806 6.02847C25.99 6.25563 25.9995 6.48061 25.9995 6.70995C25.9995 10.2047 24.5537 13.9987 21.7989 16.8972C19.044 19.7957 14.9988 21.8248 9.70574 21.8248C7.30171 21.8248 5.03189 21.3312 2.98105 20.4619C5.524 20.2806 7.86916 19.4462 9.76225 18.0679C9.96003 17.9216 10.0377 17.677 9.95768 17.4542C9.87762 17.2314 9.65629 17.0785 9.40435 17.0719C7.41708 17.0392 5.75239 15.9667 4.86472 14.4509C4.89768 14.4509 4.92594 14.4509 4.9589 14.4509C5.55461 14.4509 6.14326 14.381 6.69187 14.2412C6.95559 14.1691 7.13689 13.9419 7.12747 13.6864C7.11805 13.4308 6.92262 13.2124 6.6542 13.1578C4.50917 12.7559 2.901 11.1352 2.52897 9.12134C3.13645 9.31574 3.75806 9.46863 4.43147 9.48829C4.70696 9.50358 4.95655 9.34413 5.04131 9.10168C5.12608 8.85923 5.02247 8.59276 4.78937 8.45733C3.35778 7.56835 2.41595 6.05468 2.41595 4.33351C2.41595 3.69572 2.5949 3.11034 2.83036 2.55118C5.84422 5.62002 10.0636 7.65791 14.8293 7.8807C15.0177 7.88944 15.2013 7.81736 15.3238 7.68412C15.4462 7.5487 15.4933 7.36959 15.4509 7.19922C15.3591 6.83664 15.3002 6.45221 15.3002 6.06342C15.3002 3.3244 17.6784 1.11833 20.631 1.11833Z" fill="white"/>
</svg>
