<svg width="15" height="23" viewBox="0 0 15 23" fill="none" xmlns="http://www.w3.org/2000/svg">
<path d="M10.6595 0C8.85342 0 7.29328 0.497237 6.19819 1.47973C5.1031 2.46223 4.50687 3.90224 4.50687 5.66954V7.98022H1.19326C1.04679 7.98024 0.90633 8.03279 0.802763 8.12632C0.699196 8.21986 0.641006 8.34671 0.640991 8.47899V12.4691C0.641006 12.6014 0.699196 12.7282 0.802763 12.8218C0.90633 12.9153 1.04679 12.9678 1.19326 12.9679H4.50687V22.4444C4.50688 22.5767 4.56507 22.7035 4.66864 22.797C4.77221 22.8906 4.91267 22.9431 5.05913 22.9431H9.47728C9.62374 22.9431 9.76421 22.8906 9.86777 22.797C9.97134 22.7035 10.0295 22.5767 10.0295 22.4444V12.9679H13.8954C14.0299 12.9679 14.1598 12.9235 14.2607 12.8432C14.3616 12.7628 14.4265 12.652 14.4434 12.5314L14.9956 8.54133C15.0054 8.47113 14.9986 8.39984 14.9755 8.33222C14.9524 8.26459 14.9137 8.20217 14.8619 8.1491C14.8101 8.09603 14.7463 8.05352 14.6749 8.02441C14.6035 7.99529 14.526 7.98023 14.4477 7.98022H10.0295V5.98517C10.0295 5.42821 10.5174 4.98764 11.1341 4.98764H14.4477C14.5942 4.98763 14.7346 4.93507 14.8382 4.84154C14.9418 4.74801 14.9999 4.62115 15 4.48888V0.671188C14.9998 0.550316 14.951 0.433611 14.8627 0.342767C14.7745 0.251924 14.6526 0.193123 14.52 0.177295C14.0319 0.118816 12.2702 0 10.6595 0ZM10.6595 0.997528C12.0058 0.997528 13.3073 1.09481 13.8954 1.14462V3.99011H11.1341C9.92056 3.99011 8.92501 4.88922 8.92501 5.98517V8.47899C8.92502 8.61126 8.98321 8.73812 9.08678 8.83165C9.19035 8.92519 9.33081 8.97774 9.47728 8.97775H13.8221L13.4079 11.9703H9.47728C9.33081 11.9703 9.19035 12.0229 9.08678 12.1164C8.98321 12.21 8.92502 12.3368 8.92501 12.4691V21.9456H5.6114V12.4691C5.61139 12.3368 5.5532 12.21 5.44963 12.1164C5.34606 12.0229 5.2056 11.9703 5.05913 11.9703H1.74553V8.97775H5.05913C5.2056 8.97774 5.34606 8.92519 5.44963 8.83165C5.5532 8.73812 5.61139 8.61126 5.6114 8.47899V5.66954C5.6114 4.10111 6.11966 2.95613 6.97697 2.18696C7.83428 1.4178 9.07405 0.997528 10.6595 0.997528Z" fill="white"/>
</svg>
