<svg width="26" height="23" viewBox="0 0 26 23" fill="none" xmlns="http://www.w3.org/2000/svg">
<path d="M7.75762 0C3.66428 0 0.333374 3.04126 0.333374 6.77866V16.1645C0.333374 19.9019 3.66428 22.9431 7.75762 22.9431H18.0373C22.1307 22.9431 25.4616 19.9019 25.4616 16.1645V6.77866C25.4616 3.04126 22.1307 0 18.0373 0H7.75762ZM7.75762 1.04287H18.0373C21.5133 1.04287 24.3194 3.60495 24.3194 6.77866V16.1645C24.3194 19.3382 21.5133 21.9003 18.0373 21.9003H7.75762C4.28165 21.9003 1.47557 19.3382 1.47557 16.1645V6.77866C1.47557 3.60495 4.28165 1.04287 7.75762 1.04287ZM19.7506 4.17148C19.4477 4.17148 19.1572 4.28135 18.943 4.47693C18.7288 4.67251 18.6084 4.93776 18.6084 5.21435C18.6084 5.49094 18.7288 5.75619 18.943 5.95177C19.1572 6.14735 19.4477 6.25722 19.7506 6.25722C20.0535 6.25722 20.3441 6.14735 20.5583 5.95177C20.7725 5.75619 20.8928 5.49094 20.8928 5.21435C20.8928 4.93776 20.7725 4.67251 20.5583 4.47693C20.3441 4.28135 20.0535 4.17148 19.7506 4.17148ZM12.8975 5.73579C9.43476 5.73579 6.61542 8.30996 6.61542 11.4716C6.61542 14.6332 9.43476 17.2074 12.8975 17.2074C16.3602 17.2074 19.1795 14.6332 19.1795 11.4716C19.1795 8.30996 16.3602 5.73579 12.8975 5.73579ZM12.8975 6.77866C15.7429 6.77866 18.0373 8.87357 18.0373 11.4716C18.0373 14.0696 15.7429 16.1645 12.8975 16.1645C10.052 16.1645 7.75762 14.0696 7.75762 11.4716C7.75762 8.87357 10.052 6.77866 12.8975 6.77866Z" fill="white"/>
</svg>
