<svg width="16" height="20" viewBox="0 0 16 20" fill="none" xmlns="http://www.w3.org/2000/svg">
<path d="M14.2555 14.7529C14.2742 15.0501 15.0156 15.6455 15.6264 15.9437C15.7651 16.0164 15.8755 16.1352 15.9395 16.2806C16.0034 16.4259 16.0172 16.5892 15.9784 16.7436C15.9434 16.8924 15.8602 17.0247 15.7424 17.119C15.6246 17.2134 15.4791 17.2644 15.3295 17.2636H0.642286C0.495734 17.2601 0.354437 17.2071 0.240424 17.1129C0.126411 17.0186 0.0460905 16.8885 0.0119848 16.7427C-0.0180376 16.5869 0.00879595 16.4252 0.0874167 16.2882C0.166037 16.1512 0.291002 16.0483 0.438705 15.9991C1.04945 15.701 1.78999 15.1056 1.78999 14.8083V7.60888C1.77046 6.23283 2.26777 4.90152 3.17949 3.88917C4.02641 3.02035 5.12414 2.45307 6.31055 2.27112C6.20565 1.68026 6.339 1.07121 6.68037 0.578525C7.00397 0.199463 7.48047 -0.0123381 7.97742 0.00129714C8.22205 -0.00859431 8.4657 0.0381871 8.69015 0.138144C8.9146 0.2381 9.11405 0.388646 9.27359 0.578525C9.62652 1.05303 9.78565 1.6448 9.71809 2.23294C10.9199 2.41272 12.0318 2.98771 12.8856 3.87099C13.7938 4.88419 14.2849 6.21658 14.2564 7.5907L14.2555 14.7529ZM10.0141 18.2499C10.0631 18.2228 10.1184 18.2102 10.174 18.2134C10.2296 18.2166 10.2832 18.2355 10.3288 18.268C10.344 18.2898 10.3522 18.3159 10.3522 18.3426C10.3522 18.3693 10.344 18.3954 10.3288 18.4171C10.1963 18.8854 9.91487 19.2951 9.52912 19.5815C9.14337 19.868 8.67527 20.0148 8.19879 19.9988C7.70952 20.0013 7.23113 19.8513 6.82738 19.5687C6.42364 19.2861 6.11372 18.8844 5.93895 18.4171C5.91936 18.3939 5.90859 18.3642 5.90859 18.3335C5.90859 18.3028 5.91936 18.2731 5.93895 18.2499C6.01628 18.2199 6.10165 18.2199 6.17898 18.2499H10.0141Z" fill="white"/>
</svg>
